<svg xmlns="http://www.w3.org/2000/svg" viewBox="0 0 1024 1024" width="1024" height="1024">
  <title>AutoLogin app icon mark</title>
  <defs>
    <linearGradient id="tile" x1="0" y1="0" x2="0" y2="1">
      <stop offset="0" stop-color="#FFFFFF"/>
      <stop offset="1" stop-color="#E3E9F2"/>
    </linearGradient>
    <radialGradient id="deep" cx="0.35" cy="0.3" r="0.8">
      <stop offset="0" stop-color="#2F6BEF"/>
      <stop offset="1" stop-color="#1A3FB0"/>
    </radialGradient>
    <linearGradient id="royal" x1="0" y1="0" x2="1" y2="1">
      <stop offset="0" stop-color="#4A82F5"/>
      <stop offset="1" stop-color="#2F6BEF"/>
    </linearGradient>
    <linearGradient id="peri" x1="0" y1="0" x2="1" y2="1">
      <stop offset="0" stop-color="#A9C1F7"/>
      <stop offset="1" stop-color="#7FA2F0"/>
    </linearGradient>
    <radialGradient id="glow" cx="0.5" cy="0.5" r="0.5">
      <stop offset="0" stop-color="#5FF2F2" stop-opacity="0.9"/>
      <stop offset="1" stop-color="#5FF2F2" stop-opacity="0"/>
    </radialGradient>
    <linearGradient id="cloudShade" x1="0" y1="0" x2="0" y2="1">
      <stop offset="0" stop-color="#FFFFFF"/>
      <stop offset="1" stop-color="#E4ECFA"/>
    </linearGradient>
    <!-- Orb drawn at origin, radius 100. Nested offset circles form the swirl bands. -->
    <g id="orb">
      <circle cx="0" cy="0" r="100" fill="url(#deep)"/>
      <circle cx="8" cy="-8" r="88" fill="url(#peri)"/>
      <circle cx="-1" cy="-17" r="75" fill="url(#royal)"/>
      <circle cx="-9" cy="-9" r="63" fill="url(#deep)"/>
      <circle cx="-2" cy="-2" r="53" fill="url(#royal)"/>
      <ellipse cx="-44" cy="-58" rx="22" ry="10" transform="rotate(-38 -44 -58)" fill="#FFFFFF" opacity="0.5"/>
    </g>
    <g id="face">
      <g fill="url(#cloudShade)">
        <circle cx="-40" cy="16" r="20"/>
        <circle cx="-16" cy="-4" r="28"/>
        <circle cx="16" cy="-8" r="30"/>
        <circle cx="40" cy="12" r="22"/>
        <rect x="-58" y="10" width="116" height="40" rx="20"/>
      </g>
      <rect x="-40" y="6" width="80" height="36" rx="18" fill="#1B2A5C"/>
      <circle cx="-15" cy="22" r="11" fill="url(#glow)"/>
      <circle cx="15" cy="22" r="11" fill="url(#glow)"/>
      <circle cx="-15" cy="22" r="5.5" fill="#5FF2F2"/>
      <circle cx="15" cy="22" r="5.5" fill="#5FF2F2"/>
      <path d="M -7 32 Q 0 37 7 32" fill="none" stroke="#5FF2F2" stroke-width="3" stroke-linecap="round"/>
    </g>
  </defs>
  <rect width="1024" height="1024" rx="228" fill="url(#tile)"/>
  <ellipse cx="512" cy="900" rx="250" ry="28" fill="#1B2A5C" opacity="0.12"/>
  <g transform="translate(512 500) scale(3.9)">
    <use href="#orb"/>
    <use href="#face"/>
  </g>
</svg>
